<mxfile host="Electron" agent="Mozilla/5.0 (Windows NT 10.0; Win64; x64) AppleWebKit/537.36 (KHTML, like Gecko) draw.io/24.7.17 Chrome/128.0.6613.36 Electron/32.0.1 Safari/537.36" version="24.7.17">
  <diagram id="prtHgNgQTEPvFCAcTncT" name="Page-1">
    <mxGraphModel dx="2243" dy="887" grid="0" gridSize="10" guides="1" tooltips="1" connect="1" arrows="1" fold="1" page="0" pageScale="1" pageWidth="690" pageHeight="980" math="0" shadow="0">
      <root>
        <mxCell id="0" />
        <mxCell id="1" parent="0" />
        <mxCell id="XkRLdwCrP8ZwXXSWW3M2-1" value="&lt;p class=&quot;MsoNormal&quot;&gt;&lt;span style=&quot;mso-spacerun:&#39;yes&#39;;font-family:宋体;mso-bidi-font-family:&#39;Times New Roman&#39;;&lt;br/&gt;font-size:12.0000pt;mso-font-kerning:1.0000pt;&quot;&gt;&lt;font style=&quot;font-size: 18px;&quot;&gt;课程注册系统&lt;/font&gt;&lt;/span&gt;&lt;/p&gt;" style="rounded=0;whiteSpace=wrap;html=1;" parent="1" vertex="1">
          <mxGeometry x="258" y="83" width="445" height="56" as="geometry" />
        </mxCell>
        <mxCell id="XkRLdwCrP8ZwXXSWW3M2-2" value="获取课程安排数据" style="rounded=0;whiteSpace=wrap;html=1;" parent="1" vertex="1">
          <mxGeometry x="-180" y="624" width="120" height="60" as="geometry" />
        </mxCell>
        <mxCell id="XkRLdwCrP8ZwXXSWW3M2-9" value="" style="endArrow=none;html=1;rounded=0;exitX=0.5;exitY=0;exitDx=0;exitDy=0;entryX=0.25;entryY=1;entryDx=0;entryDy=0;" parent="1" source="XkRLdwCrP8ZwXXSWW3M2-2" target="XkRLdwCrP8ZwXXSWW3M2-11" edge="1">
          <mxGeometry relative="1" as="geometry">
            <mxPoint x="338" y="416" as="sourcePoint" />
            <mxPoint x="210.6400000000001" y="425.02" as="targetPoint" />
          </mxGeometry>
        </mxCell>
        <mxCell id="XkRLdwCrP8ZwXXSWW3M2-11" value="输入课程安排数据" style="rounded=0;whiteSpace=wrap;html=1;" parent="1" vertex="1">
          <mxGeometry x="-79" y="441" width="120" height="60" as="geometry" />
        </mxCell>
        <mxCell id="XkRLdwCrP8ZwXXSWW3M2-26" value="&lt;span style=&quot;font-size: 12px; text-wrap: wrap;&quot;&gt;课程安排数据&lt;/span&gt;" style="html=1;verticalAlign=bottom;startArrow=oval;startFill=0;endArrow=open;startSize=6;endSize=8;curved=0;rounded=0;" parent="1" edge="1">
          <mxGeometry x="-0.1936" y="8" width="80" relative="1" as="geometry">
            <mxPoint x="-119" y="596" as="sourcePoint" />
            <mxPoint x="-76" y="520" as="targetPoint" />
            <mxPoint as="offset" />
          </mxGeometry>
        </mxCell>
        <mxCell id="ygPoOTHEq9N8ThwALES1-6" value="获取注册请求" style="rounded=0;whiteSpace=wrap;html=1;" vertex="1" parent="1">
          <mxGeometry x="34" y="634" width="120" height="60" as="geometry" />
        </mxCell>
        <mxCell id="ygPoOTHEq9N8ThwALES1-7" value="输入课程安排数据" style="rounded=0;whiteSpace=wrap;html=1;" vertex="1" parent="1">
          <mxGeometry x="60" y="441" width="120" height="60" as="geometry" />
        </mxCell>
        <mxCell id="ygPoOTHEq9N8ThwALES1-8" value="输入" style="rounded=0;whiteSpace=wrap;html=1;" vertex="1" parent="1">
          <mxGeometry x="34" y="260" width="120" height="60" as="geometry" />
        </mxCell>
        <mxCell id="ygPoOTHEq9N8ThwALES1-9" value="&lt;span style=&quot;font-size: 12px; text-wrap: wrap;&quot;&gt;注册请求&lt;/span&gt;" style="html=1;verticalAlign=bottom;startArrow=oval;startFill=0;endArrow=open;startSize=6;endSize=8;curved=0;rounded=0;" edge="1" parent="1">
          <mxGeometry x="-0.2954" y="15" width="80" relative="1" as="geometry">
            <mxPoint x="84" y="602" as="sourcePoint" />
            <mxPoint x="97" y="520" as="targetPoint" />
            <mxPoint as="offset" />
          </mxGeometry>
        </mxCell>
        <mxCell id="ygPoOTHEq9N8ThwALES1-11" value="" style="endArrow=none;html=1;rounded=0;exitX=0.5;exitY=0;exitDx=0;exitDy=0;entryX=0.5;entryY=1;entryDx=0;entryDy=0;" edge="1" parent="1" source="ygPoOTHEq9N8ThwALES1-6" target="ygPoOTHEq9N8ThwALES1-7">
          <mxGeometry relative="1" as="geometry">
            <mxPoint x="134" y="620" as="sourcePoint" />
            <mxPoint x="205" y="497" as="targetPoint" />
          </mxGeometry>
        </mxCell>
        <mxCell id="ygPoOTHEq9N8ThwALES1-12" value="" style="endArrow=none;html=1;rounded=0;exitX=0.5;exitY=0;exitDx=0;exitDy=0;entryX=0.25;entryY=1;entryDx=0;entryDy=0;" edge="1" parent="1" source="XkRLdwCrP8ZwXXSWW3M2-11" target="ygPoOTHEq9N8ThwALES1-8">
          <mxGeometry relative="1" as="geometry">
            <mxPoint x="59" y="427" as="sourcePoint" />
            <mxPoint x="130" y="304" as="targetPoint" />
          </mxGeometry>
        </mxCell>
        <mxCell id="ygPoOTHEq9N8ThwALES1-13" value="" style="endArrow=none;html=1;rounded=0;exitX=0.5;exitY=0;exitDx=0;exitDy=0;entryX=0.651;entryY=1.002;entryDx=0;entryDy=0;entryPerimeter=0;" edge="1" parent="1" source="ygPoOTHEq9N8ThwALES1-7" target="ygPoOTHEq9N8ThwALES1-8">
          <mxGeometry relative="1" as="geometry">
            <mxPoint x="168" y="430" as="sourcePoint" />
            <mxPoint x="187" y="295" as="targetPoint" />
          </mxGeometry>
        </mxCell>
        <mxCell id="ygPoOTHEq9N8ThwALES1-14" value="" style="endArrow=none;html=1;rounded=0;exitX=0.5;exitY=0;exitDx=0;exitDy=0;" edge="1" parent="1" source="ygPoOTHEq9N8ThwALES1-8">
          <mxGeometry relative="1" as="geometry">
            <mxPoint x="189" y="275" as="sourcePoint" />
            <mxPoint x="271" y="140" as="targetPoint" />
          </mxGeometry>
        </mxCell>
        <mxCell id="ygPoOTHEq9N8ThwALES1-15" value="&lt;span style=&quot;font-size: 12px; text-wrap: wrap;&quot;&gt;注册请求&lt;/span&gt;" style="html=1;verticalAlign=bottom;startArrow=oval;startFill=0;endArrow=open;startSize=6;endSize=8;curved=0;rounded=0;" edge="1" parent="1">
          <mxGeometry x="-0.2954" y="15" width="80" relative="1" as="geometry">
            <mxPoint x="109" y="417" as="sourcePoint" />
            <mxPoint x="100" y="339" as="targetPoint" />
            <mxPoint as="offset" />
          </mxGeometry>
        </mxCell>
        <mxCell id="ygPoOTHEq9N8ThwALES1-16" value="&lt;span style=&quot;font-size: 12px; text-wrap: wrap;&quot;&gt;课程安排数据&lt;/span&gt;" style="html=1;verticalAlign=bottom;startArrow=oval;startFill=0;endArrow=open;startSize=6;endSize=8;curved=0;rounded=0;" edge="1" parent="1">
          <mxGeometry x="-0.1936" y="8" width="80" relative="1" as="geometry">
            <mxPoint x="-9" y="407" as="sourcePoint" />
            <mxPoint x="45" y="335" as="targetPoint" />
            <mxPoint as="offset" />
          </mxGeometry>
        </mxCell>
        <mxCell id="ygPoOTHEq9N8ThwALES1-17" value="&lt;span style=&quot;font-size: 12px; text-wrap: wrap;&quot;&gt;课程安排数据&lt;/span&gt;" style="html=1;verticalAlign=bottom;startArrow=oval;startFill=0;endArrow=open;startSize=6;endSize=8;curved=0;rounded=0;" edge="1" parent="1">
          <mxGeometry x="-0.1936" y="8" width="80" relative="1" as="geometry">
            <mxPoint x="100" y="234" as="sourcePoint" />
            <mxPoint x="184" y="176" as="targetPoint" />
            <mxPoint as="offset" />
          </mxGeometry>
        </mxCell>
        <mxCell id="ygPoOTHEq9N8ThwALES1-18" value="&lt;span style=&quot;font-size: 12px; text-wrap: wrap;&quot;&gt;注册请求&lt;/span&gt;" style="html=1;verticalAlign=bottom;startArrow=oval;startFill=0;endArrow=open;startSize=6;endSize=8;curved=0;rounded=0;" edge="1" parent="1">
          <mxGeometry x="-0.2954" y="15" width="80" relative="1" as="geometry">
            <mxPoint x="137" y="241" as="sourcePoint" />
            <mxPoint x="211" y="196" as="targetPoint" />
            <mxPoint as="offset" />
          </mxGeometry>
        </mxCell>
        <mxCell id="ygPoOTHEq9N8ThwALES1-19" value="事务选择" style="rounded=0;whiteSpace=wrap;html=1;" vertex="1" parent="1">
          <mxGeometry x="443" y="244" width="120" height="60" as="geometry" />
        </mxCell>
        <mxCell id="ygPoOTHEq9N8ThwALES1-20" value="安排课程" style="rounded=0;whiteSpace=wrap;html=1;" vertex="1" parent="1">
          <mxGeometry x="251" y="419" width="120" height="60" as="geometry" />
        </mxCell>
        <mxCell id="ygPoOTHEq9N8ThwALES1-21" value="产生班级列表" style="rounded=0;whiteSpace=wrap;html=1;" vertex="1" parent="1">
          <mxGeometry x="449" y="426" width="120" height="60" as="geometry" />
        </mxCell>
        <mxCell id="ygPoOTHEq9N8ThwALES1-22" value="注册学生" style="rounded=0;whiteSpace=wrap;html=1;" vertex="1" parent="1">
          <mxGeometry x="650" y="419" width="120" height="60" as="geometry" />
        </mxCell>
        <mxCell id="ygPoOTHEq9N8ThwALES1-23" value="输出" style="rounded=0;whiteSpace=wrap;html=1;" vertex="1" parent="1">
          <mxGeometry x="914" y="277" width="120" height="60" as="geometry" />
        </mxCell>
        <mxCell id="ygPoOTHEq9N8ThwALES1-24" value="" style="endArrow=none;html=1;rounded=0;exitX=0.5;exitY=0;exitDx=0;exitDy=0;entryX=0.546;entryY=1.018;entryDx=0;entryDy=0;entryPerimeter=0;" edge="1" parent="1" source="ygPoOTHEq9N8ThwALES1-19" target="XkRLdwCrP8ZwXXSWW3M2-1">
          <mxGeometry relative="1" as="geometry">
            <mxPoint x="400" y="262" as="sourcePoint" />
            <mxPoint x="515" y="158" as="targetPoint" />
            <Array as="points">
              <mxPoint x="501" y="189" />
            </Array>
          </mxGeometry>
        </mxCell>
        <mxCell id="ygPoOTHEq9N8ThwALES1-26" value="" style="endArrow=none;html=1;rounded=0;exitX=0.5;exitY=0;exitDx=0;exitDy=0;entryX=0.546;entryY=1.018;entryDx=0;entryDy=0;entryPerimeter=0;" edge="1" parent="1" source="ygPoOTHEq9N8ThwALES1-20">
          <mxGeometry relative="1" as="geometry">
            <mxPoint x="445" y="404" as="sourcePoint" />
            <mxPoint x="443" y="300" as="targetPoint" />
          </mxGeometry>
        </mxCell>
        <mxCell id="ygPoOTHEq9N8ThwALES1-27" value="" style="endArrow=none;html=1;rounded=0;entryX=0.5;entryY=1;entryDx=0;entryDy=0;" edge="1" parent="1" source="ygPoOTHEq9N8ThwALES1-21" target="ygPoOTHEq9N8ThwALES1-19">
          <mxGeometry relative="1" as="geometry">
            <mxPoint x="372" y="389" as="sourcePoint" />
            <mxPoint x="453" y="310" as="targetPoint" />
          </mxGeometry>
        </mxCell>
        <mxCell id="ygPoOTHEq9N8ThwALES1-28" value="" style="endArrow=none;html=1;rounded=0;exitX=0.5;exitY=0;exitDx=0;exitDy=0;entryX=1;entryY=1;entryDx=0;entryDy=0;" edge="1" parent="1" source="ygPoOTHEq9N8ThwALES1-22" target="ygPoOTHEq9N8ThwALES1-19">
          <mxGeometry relative="1" as="geometry">
            <mxPoint x="563" y="397" as="sourcePoint" />
            <mxPoint x="644" y="318" as="targetPoint" />
          </mxGeometry>
        </mxCell>
        <mxCell id="ygPoOTHEq9N8ThwALES1-29" value="" style="endArrow=none;html=1;rounded=0;exitX=0.5;exitY=0;exitDx=0;exitDy=0;entryX=1;entryY=1;entryDx=0;entryDy=0;" edge="1" parent="1" source="ygPoOTHEq9N8ThwALES1-23" target="XkRLdwCrP8ZwXXSWW3M2-1">
          <mxGeometry relative="1" as="geometry">
            <mxPoint x="707" y="276" as="sourcePoint" />
            <mxPoint x="705" y="172" as="targetPoint" />
            <Array as="points" />
          </mxGeometry>
        </mxCell>
        <mxCell id="ygPoOTHEq9N8ThwALES1-30" value="输出课程安排&lt;span style=&quot;color: rgba(0, 0, 0, 0); font-family: monospace; font-size: 0px; text-align: start; text-wrap: nowrap;&quot;&gt;%3CmxGraphModel%3E%3Croot%3E%3CmxCell%20id%3D%220%22%2F%3E%3CmxCell%20id%3D%221%22%20parent%3D%220%22%2F%3E%3CmxCell%20id%3D%222%22%20value%3D%22%E8%BE%93%E5%87%BA%22%20style%3D%22rounded%3D0%3BwhiteSpace%3Dwrap%3Bhtml%3D1%3B%22%20vertex%3D%221%22%20parent%3D%221%22%3E%3CmxGeometry%20x%3D%22776%22%20y%3D%22247%22%20width%3D%22120%22%20height%3D%2260%22%20as%3D%22geometry%22%2F%3E%3C%2FmxCell%3E%3C%2Froot%3E%3C%2FmxGraphModel%3E&lt;/span&gt;" style="rounded=0;whiteSpace=wrap;html=1;" vertex="1" parent="1">
          <mxGeometry x="876" y="411" width="120" height="60" as="geometry" />
        </mxCell>
        <mxCell id="ygPoOTHEq9N8ThwALES1-31" value="输出班级列表&lt;span style=&quot;color: rgba(0, 0, 0, 0); font-family: monospace; font-size: 0px; text-align: start; text-wrap: nowrap;&quot;&gt;3CmxGraphModel%3E%3Croot%3E%3CmxCell%20id%3D%220%22%2F%3E%3CmxCell%20id%3D%221%22%20parent%3D%220%22%2F%3E%3CmxCell%20id%3D%222%22%20value%3D%22%E8%BE%93%E5%87%BA%22%20style%3D%22rounded%3D0%3BwhiteSpace%3Dwrap%3Bhtml%3D1%3B%22%20vertex%3D%221%22%20parent%3D%221%22%3E%3CmxGeometry%20x%3D%22776%22%20y%3D%22247%22%20width%3D%22120%22%20height%3D%2260%22%20as%3D%22geometry%22%2F%3E%3C%2FmxCell%3E%3C%2Froot%3E%3C%2FmxGraphModel&lt;/span&gt;" style="rounded=0;whiteSpace=wrap;html=1;" vertex="1" parent="1">
          <mxGeometry x="1020" y="409" width="120" height="60" as="geometry" />
        </mxCell>
        <mxCell id="ygPoOTHEq9N8ThwALES1-32" value="" style="endArrow=none;html=1;rounded=0;exitX=0.5;exitY=0;exitDx=0;exitDy=0;entryX=0.25;entryY=1;entryDx=0;entryDy=0;" edge="1" parent="1" source="ygPoOTHEq9N8ThwALES1-30" target="ygPoOTHEq9N8ThwALES1-23">
          <mxGeometry relative="1" as="geometry">
            <mxPoint x="752" y="386" as="sourcePoint" />
            <mxPoint x="838" y="301" as="targetPoint" />
          </mxGeometry>
        </mxCell>
        <mxCell id="ygPoOTHEq9N8ThwALES1-33" value="" style="endArrow=none;html=1;rounded=0;exitX=0.5;exitY=0;exitDx=0;exitDy=0;entryX=0.75;entryY=1;entryDx=0;entryDy=0;" edge="1" parent="1" source="ygPoOTHEq9N8ThwALES1-31" target="ygPoOTHEq9N8ThwALES1-23">
          <mxGeometry relative="1" as="geometry">
            <mxPoint x="962" y="385" as="sourcePoint" />
            <mxPoint x="871" y="302" as="targetPoint" />
          </mxGeometry>
        </mxCell>
        <mxCell id="ygPoOTHEq9N8ThwALES1-34" value="&lt;span style=&quot;font-size: 12px; text-wrap: wrap;&quot;&gt;课程安排数据&lt;/span&gt;" style="html=1;verticalAlign=bottom;startArrow=oval;startFill=0;endArrow=open;startSize=6;endSize=8;curved=0;rounded=0;" edge="1" parent="1">
          <mxGeometry x="1" y="11" width="80" relative="1" as="geometry">
            <mxPoint x="473" y="152" as="sourcePoint" />
            <mxPoint x="477" y="230" as="targetPoint" />
            <mxPoint x="-5" y="9" as="offset" />
          </mxGeometry>
        </mxCell>
        <mxCell id="ygPoOTHEq9N8ThwALES1-37" value="&lt;span style=&quot;font-size: 12px; text-wrap: wrap;&quot;&gt;课程安排数据&lt;/span&gt;" style="html=1;verticalAlign=bottom;startArrow=oval;startFill=0;endArrow=open;startSize=6;endSize=8;curved=0;rounded=0;" edge="1" parent="1">
          <mxGeometry x="0.4596" y="23" width="80" relative="1" as="geometry">
            <mxPoint x="386" y="326" as="sourcePoint" />
            <mxPoint x="322" y="387" as="targetPoint" />
            <mxPoint as="offset" />
          </mxGeometry>
        </mxCell>
        <mxCell id="ygPoOTHEq9N8ThwALES1-39" value="&lt;span style=&quot;font-size: 12px; text-wrap: wrap;&quot;&gt;提供课程信息&lt;/span&gt;&lt;div&gt;&lt;span style=&quot;font-size: 12px; text-wrap: wrap;&quot;&gt;&lt;br&gt;&lt;/span&gt;&lt;/div&gt;" style="html=1;verticalAlign=bottom;startArrow=oval;startFill=0;endArrow=open;startSize=6;endSize=8;curved=0;rounded=0;" edge="1" parent="1">
          <mxGeometry x="-0.7502" y="-31" width="80" relative="1" as="geometry">
            <mxPoint x="356" y="399" as="sourcePoint" />
            <mxPoint x="411" y="349" as="targetPoint" />
            <mxPoint x="1" as="offset" />
          </mxGeometry>
        </mxCell>
        <mxCell id="ygPoOTHEq9N8ThwALES1-40" value="&lt;span style=&quot;font-size: 12px; text-wrap: wrap;&quot;&gt;提供课程信息&lt;/span&gt;&lt;div&gt;&lt;div&gt;&lt;span style=&quot;font-size: 12px; text-wrap: wrap;&quot;&gt;&lt;br&gt;&lt;/span&gt;&lt;/div&gt;&lt;/div&gt;" style="html=1;verticalAlign=bottom;startArrow=oval;startFill=0;endArrow=open;startSize=6;endSize=8;curved=0;rounded=0;" edge="1" parent="1">
          <mxGeometry x="-1" y="-39" width="80" relative="1" as="geometry">
            <mxPoint x="515" y="232" as="sourcePoint" />
            <mxPoint x="515" y="168" as="targetPoint" />
            <mxPoint x="-19" y="33" as="offset" />
          </mxGeometry>
        </mxCell>
        <mxCell id="ygPoOTHEq9N8ThwALES1-41" value="&lt;span style=&quot;font-size: 12px; text-wrap: wrap;&quot;&gt;课程注册信息&lt;/span&gt;" style="html=1;verticalAlign=bottom;startArrow=oval;startFill=0;endArrow=open;startSize=6;endSize=8;curved=0;rounded=0;" edge="1" parent="1">
          <mxGeometry x="1" y="11" width="80" relative="1" as="geometry">
            <mxPoint x="451" y="153" as="sourcePoint" />
            <mxPoint x="455" y="231" as="targetPoint" />
            <mxPoint x="-5" y="9" as="offset" />
          </mxGeometry>
        </mxCell>
        <mxCell id="ygPoOTHEq9N8ThwALES1-42" value="&lt;span style=&quot;font-size: 12px; text-wrap: wrap;&quot;&gt;学生信息&lt;/span&gt;" style="html=1;verticalAlign=bottom;startArrow=oval;startFill=0;endArrow=open;startSize=6;endSize=8;curved=0;rounded=0;" edge="1" parent="1">
          <mxGeometry x="1" y="11" width="80" relative="1" as="geometry">
            <mxPoint x="427" y="154" as="sourcePoint" />
            <mxPoint x="431" y="232" as="targetPoint" />
            <mxPoint x="-5" y="9" as="offset" />
          </mxGeometry>
        </mxCell>
        <mxCell id="ygPoOTHEq9N8ThwALES1-44" value="&lt;span style=&quot;font-size: 12px; text-wrap: wrap;&quot;&gt;提供课程信息&lt;/span&gt;&lt;div&gt;&lt;span style=&quot;font-size: 12px; text-wrap: wrap;&quot;&gt;&lt;br&gt;&lt;/span&gt;&lt;div&gt;&lt;span style=&quot;font-size: 12px; text-wrap: wrap;&quot;&gt;&lt;br&gt;&lt;/span&gt;&lt;/div&gt;&lt;/div&gt;" style="html=1;verticalAlign=bottom;startArrow=oval;startFill=0;endArrow=open;startSize=6;endSize=8;curved=0;rounded=0;" edge="1" parent="1">
          <mxGeometry x="1" y="-52" width="80" relative="1" as="geometry">
            <mxPoint x="407" y="157" as="sourcePoint" />
            <mxPoint x="413" y="223" as="targetPoint" />
            <mxPoint x="30" y="43" as="offset" />
          </mxGeometry>
        </mxCell>
        <mxCell id="ygPoOTHEq9N8ThwALES1-45" value="&lt;span style=&quot;font-size: 12px; text-wrap: wrap;&quot;&gt;学生信息&lt;/span&gt;" style="html=1;verticalAlign=bottom;startArrow=oval;startFill=0;endArrow=open;startSize=6;endSize=8;curved=0;rounded=0;" edge="1" parent="1">
          <mxGeometry x="1" y="11" width="80" relative="1" as="geometry">
            <mxPoint x="488" y="321" as="sourcePoint" />
            <mxPoint x="492" y="399" as="targetPoint" />
            <mxPoint x="-5" y="9" as="offset" />
          </mxGeometry>
        </mxCell>
        <mxCell id="ygPoOTHEq9N8ThwALES1-46" value="&lt;span style=&quot;font-size: 12px; text-wrap: wrap;&quot;&gt;提供课程信息&lt;/span&gt;&lt;div&gt;&lt;div&gt;&lt;span style=&quot;font-size: 12px; text-wrap: wrap;&quot;&gt;&lt;br&gt;&lt;/span&gt;&lt;/div&gt;&lt;/div&gt;" style="html=1;verticalAlign=bottom;startArrow=oval;startFill=0;endArrow=open;startSize=6;endSize=8;curved=0;rounded=0;" edge="1" parent="1">
          <mxGeometry x="1" y="-26" width="80" relative="1" as="geometry">
            <mxPoint x="475" y="326" as="sourcePoint" />
            <mxPoint x="475" y="399" as="targetPoint" />
            <mxPoint x="11" y="21" as="offset" />
          </mxGeometry>
        </mxCell>
        <mxCell id="ygPoOTHEq9N8ThwALES1-48" value="&lt;span style=&quot;font-size: 12px; text-wrap: wrap;&quot;&gt;课程注册信息&lt;/span&gt;" style="html=1;verticalAlign=bottom;startArrow=oval;startFill=0;endArrow=open;startSize=6;endSize=8;curved=0;rounded=0;" edge="1" parent="1">
          <mxGeometry x="1" y="11" width="80" relative="1" as="geometry">
            <mxPoint x="510" y="326" as="sourcePoint" />
            <mxPoint x="514" y="404" as="targetPoint" />
            <mxPoint x="-5" y="9" as="offset" />
          </mxGeometry>
        </mxCell>
        <mxCell id="ygPoOTHEq9N8ThwALES1-50" value="&lt;span style=&quot;font-size: 12px; text-wrap: wrap;&quot;&gt;班级列表&lt;/span&gt;&lt;div&gt;&lt;span style=&quot;font-size: 12px; text-wrap: wrap;&quot;&gt;&lt;br&gt;&lt;/span&gt;&lt;div&gt;&lt;div&gt;&lt;span style=&quot;font-size: 12px; text-wrap: wrap;&quot;&gt;&lt;br&gt;&lt;/span&gt;&lt;/div&gt;&lt;/div&gt;&lt;/div&gt;" style="html=1;verticalAlign=bottom;startArrow=oval;startFill=0;endArrow=open;startSize=6;endSize=8;curved=0;rounded=0;" edge="1" parent="1">
          <mxGeometry x="-1" y="-39" width="80" relative="1" as="geometry">
            <mxPoint x="538" y="388" as="sourcePoint" />
            <mxPoint x="538" y="324" as="targetPoint" />
            <mxPoint x="-19" y="33" as="offset" />
          </mxGeometry>
        </mxCell>
        <mxCell id="ygPoOTHEq9N8ThwALES1-51" value="&lt;span style=&quot;font-size: 12px; text-wrap: wrap;&quot;&gt;注册请求&lt;/span&gt;" style="html=1;verticalAlign=bottom;startArrow=oval;startFill=0;endArrow=open;startSize=6;endSize=8;curved=0;rounded=0;" edge="1" parent="1">
          <mxGeometry x="0.4943" y="-18" width="80" relative="1" as="geometry">
            <mxPoint x="372" y="153" as="sourcePoint" />
            <mxPoint x="375" y="238" as="targetPoint" />
            <mxPoint y="-1" as="offset" />
          </mxGeometry>
        </mxCell>
        <mxCell id="ygPoOTHEq9N8ThwALES1-52" value="&lt;span style=&quot;font-size: 12px; text-wrap: wrap;&quot;&gt;注册请求&lt;/span&gt;" style="html=1;verticalAlign=bottom;startArrow=oval;startFill=0;endArrow=open;startSize=6;endSize=8;curved=0;rounded=0;" edge="1" parent="1">
          <mxGeometry x="0.4943" y="-18" width="80" relative="1" as="geometry">
            <mxPoint x="585" y="337" as="sourcePoint" />
            <mxPoint x="651" y="392" as="targetPoint" />
            <mxPoint y="-1" as="offset" />
          </mxGeometry>
        </mxCell>
        <mxCell id="ygPoOTHEq9N8ThwALES1-53" value="&lt;span style=&quot;font-size: 12px; text-wrap: wrap;&quot;&gt;学生信息&lt;/span&gt;" style="html=1;verticalAlign=bottom;startArrow=oval;startFill=0;endArrow=open;startSize=6;endSize=8;curved=0;rounded=0;" edge="1" parent="1">
          <mxGeometry x="0.0861" y="-22" width="80" relative="1" as="geometry">
            <mxPoint x="583" y="355" as="sourcePoint" />
            <mxPoint x="642" y="410" as="targetPoint" />
            <mxPoint as="offset" />
          </mxGeometry>
        </mxCell>
        <mxCell id="ygPoOTHEq9N8ThwALES1-54" value="&lt;span style=&quot;font-size: 12px; text-wrap: wrap;&quot;&gt;提供课程信息&lt;/span&gt;" style="html=1;verticalAlign=bottom;startArrow=oval;startFill=0;endArrow=open;startSize=6;endSize=8;curved=0;rounded=0;" edge="1" parent="1">
          <mxGeometry x="1" y="-50" width="80" relative="1" as="geometry">
            <mxPoint x="611" y="317" as="sourcePoint" />
            <mxPoint x="680" y="374" as="targetPoint" />
            <mxPoint x="12" y="7" as="offset" />
          </mxGeometry>
        </mxCell>
        <mxCell id="ygPoOTHEq9N8ThwALES1-56" value="&lt;div&gt;&lt;div&gt;&lt;span style=&quot;font-size: 12px; text-wrap: wrap;&quot;&gt;课程安排&lt;/span&gt;&lt;/div&gt;&lt;/div&gt;" style="html=1;verticalAlign=bottom;startArrow=oval;startFill=0;endArrow=open;startSize=6;endSize=8;curved=0;rounded=0;" edge="1" parent="1">
          <mxGeometry x="-0.6217" y="9" width="80" relative="1" as="geometry">
            <mxPoint x="717" y="364" as="sourcePoint" />
            <mxPoint x="620" y="292" as="targetPoint" />
            <mxPoint as="offset" />
          </mxGeometry>
        </mxCell>
        <mxCell id="ygPoOTHEq9N8ThwALES1-58" value="&lt;div&gt;&lt;div&gt;&lt;span style=&quot;font-size: 12px; text-wrap: wrap;&quot;&gt;课程安排&lt;/span&gt;&lt;/div&gt;&lt;/div&gt;" style="html=1;verticalAlign=bottom;startArrow=oval;startFill=0;endArrow=open;startSize=6;endSize=8;curved=0;rounded=0;" edge="1" parent="1">
          <mxGeometry x="-0.7813" y="-13" width="80" relative="1" as="geometry">
            <mxPoint x="553" y="231" as="sourcePoint" />
            <mxPoint x="553" y="167" as="targetPoint" />
            <mxPoint as="offset" />
          </mxGeometry>
        </mxCell>
        <mxCell id="ygPoOTHEq9N8ThwALES1-59" value="&lt;span style=&quot;font-size: 12px; text-wrap: wrap;&quot;&gt;班级列表&lt;/span&gt;&lt;div&gt;&lt;span style=&quot;font-size: 12px; text-wrap: wrap;&quot;&gt;&lt;br&gt;&lt;/span&gt;&lt;div&gt;&lt;div&gt;&lt;span style=&quot;font-size: 12px; text-wrap: wrap;&quot;&gt;&lt;br&gt;&lt;/span&gt;&lt;/div&gt;&lt;/div&gt;&lt;/div&gt;" style="html=1;verticalAlign=bottom;startArrow=oval;startFill=0;endArrow=open;startSize=6;endSize=8;curved=0;rounded=0;" edge="1" parent="1">
          <mxGeometry x="-1" y="-39" width="80" relative="1" as="geometry">
            <mxPoint x="582" y="232" as="sourcePoint" />
            <mxPoint x="582" y="168" as="targetPoint" />
            <mxPoint x="-19" y="33" as="offset" />
          </mxGeometry>
        </mxCell>
        <mxCell id="ygPoOTHEq9N8ThwALES1-60" value="&lt;div&gt;&lt;div&gt;&lt;span style=&quot;font-size: 12px; text-wrap: wrap;&quot;&gt;课程安排&lt;/span&gt;&lt;/div&gt;&lt;/div&gt;" style="html=1;verticalAlign=bottom;startArrow=oval;startFill=0;endArrow=open;startSize=6;endSize=8;curved=0;rounded=0;" edge="1" parent="1">
          <mxGeometry x="0.4584" y="-38" width="80" relative="1" as="geometry">
            <mxPoint x="711" y="158" as="sourcePoint" />
            <mxPoint x="847" y="236" as="targetPoint" />
            <mxPoint as="offset" />
          </mxGeometry>
        </mxCell>
        <mxCell id="ygPoOTHEq9N8ThwALES1-61" value="&lt;span style=&quot;font-size: 12px; text-wrap: wrap;&quot;&gt;班级列表&lt;/span&gt;" style="html=1;verticalAlign=bottom;startArrow=oval;startFill=0;endArrow=open;startSize=6;endSize=8;curved=0;rounded=0;" edge="1" parent="1">
          <mxGeometry x="0.7153" y="-22" width="80" relative="1" as="geometry">
            <mxPoint x="756" y="145" as="sourcePoint" />
            <mxPoint x="884" y="210" as="targetPoint" />
            <mxPoint as="offset" />
          </mxGeometry>
        </mxCell>
        <mxCell id="ygPoOTHEq9N8ThwALES1-62" value="&lt;div&gt;&lt;div&gt;&lt;span style=&quot;font-size: 12px; text-wrap: wrap;&quot;&gt;课程安排&lt;/span&gt;&lt;/div&gt;&lt;/div&gt;" style="html=1;verticalAlign=bottom;startArrow=oval;startFill=0;endArrow=open;startSize=6;endSize=8;curved=0;rounded=0;" edge="1" parent="1">
          <mxGeometry x="0.5264" y="-4" width="80" relative="1" as="geometry">
            <mxPoint x="909" y="345" as="sourcePoint" />
            <mxPoint x="892" y="394" as="targetPoint" />
            <mxPoint as="offset" />
          </mxGeometry>
        </mxCell>
        <mxCell id="ygPoOTHEq9N8ThwALES1-63" value="&lt;span style=&quot;font-size: 12px; text-wrap: wrap;&quot;&gt;班级列表&lt;/span&gt;" style="html=1;verticalAlign=bottom;startArrow=oval;startFill=0;endArrow=open;startSize=6;endSize=8;curved=0;rounded=0;" edge="1" parent="1">
          <mxGeometry x="0.7153" y="-22" width="80" relative="1" as="geometry">
            <mxPoint x="1034" y="344" as="sourcePoint" />
            <mxPoint x="1090" y="390" as="targetPoint" />
            <mxPoint as="offset" />
          </mxGeometry>
        </mxCell>
      </root>
    </mxGraphModel>
  </diagram>
</mxfile>
